# xmcd
#
# Track frame offsets:
#	150
#	15485
#	28745
#	44077
#	60385
#	75097
#	88985
#	103910
#	118977
#	133127
#	146532
#	159370
#	173725
#	187732
#	200770
#	214625
#	229005
#	245315
#	260262
#	273717
#	286792
#	300770
#
# Disc length: 4201 seconds
#
# Revision: 1
# Processed by: cddbd v1.5PL3 Copyright (c) Steve Scherf et al.
# Submitted via: audiograbber 1.81.03
#
DISCID=2c106716
DTITLE=Big Bill Broonzy - Complete Recorded Works in Chronological Order Vol. 3
DYEAR=1927
DGENRE=Blues
TTITLE0=I Want to See My Baby - BIG BILL
TTITLE1=Serve it to Me Right
TTITLE2=Dirty-No-Gooder
TTITLE3=Let Her Go--She Don't Know
TTITLE4=Hobo Blues
TTITLE5=Prowlin' Ground Hog
TTITLE6=C-C Rider (take A)
TTITLE7=C-C Rider (take B) 
TTITLE8=Mobile and Western Line - STATE STREET BOYS
TTITLE9=Crazy About You
TTITLE10=Sweet to Mama
TTITLE11=Rustelin' Man
TTITLE12=She Caught the Train
TTITLE13=Midnight Special
TTITLE14=The Dozen
TTITLE15=Don't Tear My Clothes
TTITLE16=The Southern Blues - BIG BILL
TTITLE17=Good Jelly
TTITLE18=C and A Blues
TTITLE19=Something Good
TTITLE20=You May Need My Help Someday
TTITLE21=Rising Sun Shine On
EXTD=DOCD-5052  18 October 1934 to 2 July 1935
EXTT0=
EXTT1=
EXTT2=
EXTT3=
EXTT4=
EXTT5=
EXTT6=
EXTT7=
EXTT8=
EXTT9=
EXTT10=
EXTT11=
EXTT12=
EXTT13=
EXTT14=
EXTT15=
EXTT16=
EXTT17=
EXTT18=
EXTT19=
EXTT20=
EXTT21=
PLAYORDER=
